<mxfile host="Electron" modified="2023-11-15T12:37:33.031Z" agent="Mozilla/5.0 (Windows NT 10.0; Win64; x64) AppleWebKit/537.36 (KHTML, like Gecko) draw.io/21.5.0 Chrome/112.0.5615.204 Electron/24.5.1 Safari/537.36" etag="IAuq7552VJFLVBZQ4lWY" version="21.5.0" type="device">
  <diagram name="Page-1" id="2JVBHi15vYsiEp_4ve-y">
    <mxGraphModel dx="823" dy="582" grid="1" gridSize="10" guides="1" tooltips="1" connect="1" arrows="1" fold="1" page="1" pageScale="1" pageWidth="827" pageHeight="1169" math="0" shadow="0">
      <root>
        <mxCell id="0" />
        <mxCell id="1" parent="0" />
        <mxCell id="0TnctNxrD1-3UNqjvdYk-1" value="" style="endArrow=none;html=1;rounded=0;strokeColor=#006600;strokeWidth=3;entryX=0;entryY=0.25;entryDx=0;entryDy=0;edgeStyle=orthogonalEdgeStyle;startArrow=oval;startFill=1;" edge="1" parent="1" target="0TnctNxrD1-3UNqjvdYk-7">
          <mxGeometry width="50" height="50" relative="1" as="geometry">
            <mxPoint x="240" y="255" as="sourcePoint" />
            <mxPoint x="320" y="240" as="targetPoint" />
            <Array as="points">
              <mxPoint x="260" y="255" />
              <mxPoint x="260" y="255" />
            </Array>
          </mxGeometry>
        </mxCell>
        <mxCell id="0TnctNxrD1-3UNqjvdYk-2" value="" style="endArrow=none;html=1;rounded=0;strokeColor=#006600;strokeWidth=3;entryX=0;entryY=0.25;entryDx=0;entryDy=0;edgeStyle=orthogonalEdgeStyle;startArrow=oval;startFill=1;" edge="1" parent="1" target="0TnctNxrD1-3UNqjvdYk-8">
          <mxGeometry width="50" height="50" relative="1" as="geometry">
            <mxPoint x="240" y="290" as="sourcePoint" />
            <mxPoint x="320" y="280" as="targetPoint" />
            <Array as="points">
              <mxPoint x="240" y="290" />
              <mxPoint x="280" y="290" />
              <mxPoint x="280" y="335" />
            </Array>
          </mxGeometry>
        </mxCell>
        <mxCell id="0TnctNxrD1-3UNqjvdYk-4" value="" style="endArrow=none;html=1;rounded=0;strokeWidth=3;strokeColor=#000099;entryX=0;entryY=0.75;entryDx=0;entryDy=0;edgeStyle=orthogonalEdgeStyle;startArrow=oval;startFill=1;" edge="1" parent="1" target="0TnctNxrD1-3UNqjvdYk-7">
          <mxGeometry width="50" height="50" relative="1" as="geometry">
            <mxPoint x="240" y="330" as="sourcePoint" />
            <mxPoint x="320" y="360" as="targetPoint" />
            <Array as="points">
              <mxPoint x="290" y="330" />
              <mxPoint x="290" y="285" />
            </Array>
          </mxGeometry>
        </mxCell>
        <mxCell id="0TnctNxrD1-3UNqjvdYk-5" value="" style="endArrow=none;html=1;rounded=0;strokeWidth=3;strokeColor=#000099;entryX=0;entryY=0.75;entryDx=0;entryDy=0;edgeStyle=orthogonalEdgeStyle;startArrow=oval;startFill=1;" edge="1" parent="1" target="0TnctNxrD1-3UNqjvdYk-8">
          <mxGeometry width="50" height="50" relative="1" as="geometry">
            <mxPoint x="240" y="365" as="sourcePoint" />
            <mxPoint x="320" y="400" as="targetPoint" />
            <Array as="points">
              <mxPoint x="274" y="365" />
              <mxPoint x="310" y="365" />
            </Array>
          </mxGeometry>
        </mxCell>
        <mxCell id="0TnctNxrD1-3UNqjvdYk-7" value="&lt;font style=&quot;font-size: 31px;&quot;&gt;XOR&lt;/font&gt;" style="rounded=0;whiteSpace=wrap;html=1;" vertex="1" parent="1">
          <mxGeometry x="310" y="240" width="70" height="60" as="geometry" />
        </mxCell>
        <mxCell id="0TnctNxrD1-3UNqjvdYk-8" value="&lt;font style=&quot;font-size: 31px;&quot;&gt;XOR&lt;/font&gt;" style="rounded=0;whiteSpace=wrap;html=1;" vertex="1" parent="1">
          <mxGeometry x="310" y="320" width="70" height="60" as="geometry" />
        </mxCell>
        <mxCell id="0TnctNxrD1-3UNqjvdYk-10" value="" style="endArrow=oval;html=1;rounded=0;strokeColor=#CC6600;strokeWidth=3;startArrow=none;startFill=0;exitX=1;exitY=0.5;exitDx=0;exitDy=0;edgeStyle=orthogonalEdgeStyle;endFill=1;" edge="1" parent="1" source="0TnctNxrD1-3UNqjvdYk-7">
          <mxGeometry width="50" height="50" relative="1" as="geometry">
            <mxPoint x="440" y="300" as="sourcePoint" />
            <mxPoint x="420" y="290" as="targetPoint" />
            <Array as="points">
              <mxPoint x="400" y="270" />
              <mxPoint x="400" y="290" />
            </Array>
          </mxGeometry>
        </mxCell>
        <mxCell id="0TnctNxrD1-3UNqjvdYk-11" value="" style="endArrow=oval;html=1;rounded=0;strokeColor=#CC6600;strokeWidth=3;startArrow=none;startFill=0;exitX=1;exitY=0.5;exitDx=0;exitDy=0;endFill=1;edgeStyle=orthogonalEdgeStyle;" edge="1" parent="1" source="0TnctNxrD1-3UNqjvdYk-8">
          <mxGeometry width="50" height="50" relative="1" as="geometry">
            <mxPoint x="380" y="344" as="sourcePoint" />
            <mxPoint x="420" y="330" as="targetPoint" />
            <Array as="points">
              <mxPoint x="400" y="350" />
              <mxPoint x="400" y="330" />
              <mxPoint x="420" y="330" />
            </Array>
          </mxGeometry>
        </mxCell>
        <mxCell id="0TnctNxrD1-3UNqjvdYk-14" value="&lt;b&gt;&lt;font style=&quot;font-size: 16px;&quot;&gt;1&lt;/font&gt;&lt;/b&gt;" style="text;html=1;align=center;verticalAlign=middle;resizable=0;points=[];autosize=1;strokeColor=none;fillColor=none;" vertex="1" parent="1">
          <mxGeometry x="208" y="240" width="30" height="30" as="geometry" />
        </mxCell>
        <mxCell id="0TnctNxrD1-3UNqjvdYk-15" value="&lt;b&gt;&lt;font style=&quot;font-size: 16px;&quot;&gt;1&lt;/font&gt;&lt;/b&gt;" style="text;html=1;align=center;verticalAlign=middle;resizable=0;points=[];autosize=1;strokeColor=none;fillColor=none;" vertex="1" parent="1">
          <mxGeometry x="208" y="274.5" width="30" height="30" as="geometry" />
        </mxCell>
        <mxCell id="0TnctNxrD1-3UNqjvdYk-16" value="&lt;b&gt;&lt;font style=&quot;font-size: 16px;&quot;&gt;1&lt;/font&gt;&lt;/b&gt;" style="text;html=1;align=center;verticalAlign=middle;resizable=0;points=[];autosize=1;strokeColor=none;fillColor=none;" vertex="1" parent="1">
          <mxGeometry x="208" y="350" width="30" height="30" as="geometry" />
        </mxCell>
        <mxCell id="0TnctNxrD1-3UNqjvdYk-18" value="&lt;b&gt;&lt;font style=&quot;font-size: 16px;&quot;&gt;0&lt;/font&gt;&lt;/b&gt;" style="text;html=1;align=center;verticalAlign=middle;resizable=0;points=[];autosize=1;strokeColor=none;fillColor=none;" vertex="1" parent="1">
          <mxGeometry x="208" y="314" width="30" height="30" as="geometry" />
        </mxCell>
        <mxCell id="0TnctNxrD1-3UNqjvdYk-19" value="&lt;b&gt;&lt;font style=&quot;font-size: 16px;&quot;&gt;1&lt;/font&gt;&lt;/b&gt;" style="text;html=1;align=center;verticalAlign=middle;resizable=0;points=[];autosize=1;strokeColor=none;fillColor=none;" vertex="1" parent="1">
          <mxGeometry x="419" y="274.5" width="30" height="30" as="geometry" />
        </mxCell>
        <mxCell id="0TnctNxrD1-3UNqjvdYk-21" value="&lt;b&gt;&lt;font style=&quot;font-size: 16px;&quot;&gt;0&lt;/font&gt;&lt;/b&gt;" style="text;html=1;align=center;verticalAlign=middle;resizable=0;points=[];autosize=1;strokeColor=none;fillColor=none;" vertex="1" parent="1">
          <mxGeometry x="419" y="314" width="30" height="30" as="geometry" />
        </mxCell>
        <mxCell id="0TnctNxrD1-3UNqjvdYk-22" value="" style="shape=curlyBracket;whiteSpace=wrap;html=1;rounded=1;labelPosition=left;verticalLabelPosition=middle;align=right;verticalAlign=middle;" vertex="1" parent="1">
          <mxGeometry x="200" y="240" width="20" height="60" as="geometry" />
        </mxCell>
        <mxCell id="0TnctNxrD1-3UNqjvdYk-23" value="" style="shape=curlyBracket;whiteSpace=wrap;html=1;rounded=1;labelPosition=left;verticalLabelPosition=middle;align=right;verticalAlign=middle;" vertex="1" parent="1">
          <mxGeometry x="200" y="320" width="20" height="60" as="geometry" />
        </mxCell>
        <mxCell id="0TnctNxrD1-3UNqjvdYk-24" value="" style="shape=curlyBracket;whiteSpace=wrap;html=1;rounded=1;flipH=1;labelPosition=right;verticalLabelPosition=middle;align=left;verticalAlign=middle;" vertex="1" parent="1">
          <mxGeometry x="440" y="280" width="20" height="60" as="geometry" />
        </mxCell>
        <mxCell id="0TnctNxrD1-3UNqjvdYk-25" value="&lt;b&gt;&lt;font color=&quot;#006600&quot;&gt;11 = 3&lt;/font&gt;&lt;/b&gt;" style="text;html=1;align=center;verticalAlign=middle;resizable=0;points=[];autosize=1;strokeColor=none;fillColor=none;" vertex="1" parent="1">
          <mxGeometry x="148" y="255" width="60" height="30" as="geometry" />
        </mxCell>
        <mxCell id="0TnctNxrD1-3UNqjvdYk-26" value="&lt;b&gt;&lt;font color=&quot;#000099&quot;&gt;10 = 2&lt;/font&gt;&lt;/b&gt;" style="text;html=1;align=center;verticalAlign=middle;resizable=0;points=[];autosize=1;strokeColor=none;fillColor=none;" vertex="1" parent="1">
          <mxGeometry x="148" y="335" width="60" height="30" as="geometry" />
        </mxCell>
        <mxCell id="0TnctNxrD1-3UNqjvdYk-27" value="&lt;b&gt;&lt;font color=&quot;#000099&quot;&gt;01 = 1&lt;/font&gt;&lt;/b&gt;" style="text;html=1;align=center;verticalAlign=middle;resizable=0;points=[];autosize=1;strokeColor=none;fillColor=none;" vertex="1" parent="1">
          <mxGeometry x="449" y="294" width="60" height="30" as="geometry" />
        </mxCell>
        <mxCell id="0TnctNxrD1-3UNqjvdYk-29" value="r&lt;span style=&quot;font-size: 10px;&quot;&gt;&lt;sub&gt;1&lt;/sub&gt;&lt;/span&gt;" style="text;html=1;align=center;verticalAlign=middle;resizable=0;points=[];autosize=1;strokeColor=none;fillColor=none;" vertex="1" parent="1">
          <mxGeometry x="396" y="305" width="30" height="30" as="geometry" />
        </mxCell>
        <mxCell id="0TnctNxrD1-3UNqjvdYk-30" value="r&lt;span style=&quot;font-size: 10px;&quot;&gt;&lt;sub&gt;0&lt;/sub&gt;&lt;/span&gt;" style="text;html=1;align=center;verticalAlign=middle;resizable=0;points=[];autosize=1;strokeColor=none;fillColor=none;" vertex="1" parent="1">
          <mxGeometry x="396" y="264" width="30" height="30" as="geometry" />
        </mxCell>
        <mxCell id="0TnctNxrD1-3UNqjvdYk-31" value="a&lt;span style=&quot;font-size: 10px;&quot;&gt;&lt;sub&gt;0&lt;/sub&gt;&lt;/span&gt;" style="text;html=1;align=center;verticalAlign=middle;resizable=0;points=[];autosize=1;strokeColor=none;fillColor=none;" vertex="1" parent="1">
          <mxGeometry x="238" y="229" width="30" height="30" as="geometry" />
        </mxCell>
        <mxCell id="0TnctNxrD1-3UNqjvdYk-32" value="b&lt;span style=&quot;font-size: 10px;&quot;&gt;&lt;sub&gt;0&lt;/sub&gt;&lt;/span&gt;" style="text;html=1;align=center;verticalAlign=middle;resizable=0;points=[];autosize=1;strokeColor=none;fillColor=none;" vertex="1" parent="1">
          <mxGeometry x="238" y="305" width="30" height="30" as="geometry" />
        </mxCell>
        <mxCell id="0TnctNxrD1-3UNqjvdYk-33" value="a&lt;span style=&quot;font-size: 10px;&quot;&gt;&lt;sub&gt;1&lt;/sub&gt;&lt;/span&gt;" style="text;html=1;align=center;verticalAlign=middle;resizable=0;points=[];autosize=1;strokeColor=none;fillColor=none;" vertex="1" parent="1">
          <mxGeometry x="238" y="266" width="30" height="30" as="geometry" />
        </mxCell>
        <mxCell id="0TnctNxrD1-3UNqjvdYk-34" value="b&lt;span style=&quot;font-size: 10px;&quot;&gt;&lt;sub&gt;1&lt;/sub&gt;&lt;/span&gt;" style="text;html=1;align=center;verticalAlign=middle;resizable=0;points=[];autosize=1;strokeColor=none;fillColor=none;" vertex="1" parent="1">
          <mxGeometry x="238" y="340" width="30" height="30" as="geometry" />
        </mxCell>
        <mxCell id="0TnctNxrD1-3UNqjvdYk-37" value="&lt;b&gt;Circuit binaire&lt;br&gt;Addition modulaire sur 2 bits&lt;/b&gt;" style="text;html=1;align=center;verticalAlign=middle;resizable=0;points=[];autosize=1;strokeColor=none;fillColor=none;" vertex="1" parent="1">
          <mxGeometry x="270" y="200" width="190" height="40" as="geometry" />
        </mxCell>
        <mxCell id="0TnctNxrD1-3UNqjvdYk-38" value="" style="endArrow=none;html=1;rounded=0;" edge="1" parent="1">
          <mxGeometry width="50" height="50" relative="1" as="geometry">
            <mxPoint x="120" y="470" as="sourcePoint" />
            <mxPoint x="640" y="470" as="targetPoint" />
          </mxGeometry>
        </mxCell>
        <mxCell id="0TnctNxrD1-3UNqjvdYk-39" value="" style="endArrow=none;html=1;rounded=0;" edge="1" parent="1">
          <mxGeometry width="50" height="50" relative="1" as="geometry">
            <mxPoint x="120" y="500" as="sourcePoint" />
            <mxPoint x="640" y="500" as="targetPoint" />
          </mxGeometry>
        </mxCell>
        <mxCell id="0TnctNxrD1-3UNqjvdYk-42" value="" style="endArrow=none;html=1;rounded=0;" edge="1" parent="1">
          <mxGeometry width="50" height="50" relative="1" as="geometry">
            <mxPoint x="120" y="540" as="sourcePoint" />
            <mxPoint x="640" y="540" as="targetPoint" />
          </mxGeometry>
        </mxCell>
        <mxCell id="0TnctNxrD1-3UNqjvdYk-54" value="" style="endArrow=none;dashed=1;html=1;dashPattern=1 3;strokeWidth=2;rounded=0;" edge="1" parent="1">
          <mxGeometry width="50" height="50" relative="1" as="geometry">
            <mxPoint x="140" y="530" as="sourcePoint" />
            <mxPoint x="140" y="510" as="targetPoint" />
            <Array as="points">
              <mxPoint x="140" y="510" />
            </Array>
          </mxGeometry>
        </mxCell>
        <mxCell id="0TnctNxrD1-3UNqjvdYk-57" value="" style="shape=curlyBracket;whiteSpace=wrap;html=1;rounded=1;labelPosition=left;verticalLabelPosition=middle;align=right;verticalAlign=middle;" vertex="1" parent="1">
          <mxGeometry x="90" y="470" width="20" height="70" as="geometry" />
        </mxCell>
        <mxCell id="0TnctNxrD1-3UNqjvdYk-58" value="&lt;b&gt;reg_X&lt;br&gt;&lt;/b&gt;2n qubits" style="text;html=1;align=center;verticalAlign=middle;resizable=0;points=[];autosize=1;strokeColor=none;fillColor=none;" vertex="1" parent="1">
          <mxGeometry x="20" y="480" width="70" height="40" as="geometry" />
        </mxCell>
        <mxCell id="0TnctNxrD1-3UNqjvdYk-59" value="" style="shape=curlyBracket;whiteSpace=wrap;html=1;rounded=1;labelPosition=left;verticalLabelPosition=middle;align=right;verticalAlign=middle;" vertex="1" parent="1">
          <mxGeometry x="90" y="570" width="20" height="60" as="geometry" />
        </mxCell>
        <mxCell id="0TnctNxrD1-3UNqjvdYk-60" value="&lt;b&gt;reg_Z&lt;/b&gt;&lt;br&gt;n qubits" style="text;html=1;align=center;verticalAlign=middle;resizable=0;points=[];autosize=1;strokeColor=none;fillColor=none;" vertex="1" parent="1">
          <mxGeometry x="20" y="585" width="70" height="40" as="geometry" />
        </mxCell>
        <mxCell id="0TnctNxrD1-3UNqjvdYk-61" value="" style="shape=curlyBracket;whiteSpace=wrap;html=1;rounded=1;labelPosition=left;verticalLabelPosition=middle;align=right;verticalAlign=middle;" vertex="1" parent="1">
          <mxGeometry x="90" y="650" width="20" height="60" as="geometry" />
        </mxCell>
        <mxCell id="0TnctNxrD1-3UNqjvdYk-62" value="&lt;b style=&quot;border-color: var(--border-color);&quot;&gt;ancilia&lt;/b&gt;&lt;br&gt;n+4 qubits" style="text;html=1;align=center;verticalAlign=middle;resizable=0;points=[];autosize=1;strokeColor=none;fillColor=none;" vertex="1" parent="1">
          <mxGeometry x="15" y="665" width="80" height="40" as="geometry" />
        </mxCell>
        <mxCell id="0TnctNxrD1-3UNqjvdYk-66" value="H" style="rounded=0;whiteSpace=wrap;html=1;" vertex="1" parent="1">
          <mxGeometry x="150" y="530" width="20" height="20" as="geometry" />
        </mxCell>
        <mxCell id="0TnctNxrD1-3UNqjvdYk-67" value="H" style="rounded=0;whiteSpace=wrap;html=1;" vertex="1" parent="1">
          <mxGeometry x="150" y="490" width="20" height="20" as="geometry" />
        </mxCell>
        <mxCell id="0TnctNxrD1-3UNqjvdYk-68" value="H" style="rounded=0;whiteSpace=wrap;html=1;" vertex="1" parent="1">
          <mxGeometry x="150" y="460" width="20" height="20" as="geometry" />
        </mxCell>
        <mxCell id="0TnctNxrD1-3UNqjvdYk-71" value="" style="endArrow=none;html=1;rounded=0;" edge="1" parent="1">
          <mxGeometry width="50" height="50" relative="1" as="geometry">
            <mxPoint x="120" y="570" as="sourcePoint" />
            <mxPoint x="640" y="570" as="targetPoint" />
          </mxGeometry>
        </mxCell>
        <mxCell id="0TnctNxrD1-3UNqjvdYk-72" value="" style="endArrow=none;html=1;rounded=0;" edge="1" parent="1">
          <mxGeometry width="50" height="50" relative="1" as="geometry">
            <mxPoint x="120" y="590" as="sourcePoint" />
            <mxPoint x="640" y="590" as="targetPoint" />
          </mxGeometry>
        </mxCell>
        <mxCell id="0TnctNxrD1-3UNqjvdYk-73" value="" style="endArrow=none;html=1;rounded=0;" edge="1" parent="1">
          <mxGeometry width="50" height="50" relative="1" as="geometry">
            <mxPoint x="120" y="630" as="sourcePoint" />
            <mxPoint x="640" y="630" as="targetPoint" />
          </mxGeometry>
        </mxCell>
        <mxCell id="0TnctNxrD1-3UNqjvdYk-74" value="" style="endArrow=none;dashed=1;html=1;dashPattern=1 3;strokeWidth=2;rounded=0;" edge="1" parent="1">
          <mxGeometry width="50" height="50" relative="1" as="geometry">
            <mxPoint x="140" y="620" as="sourcePoint" />
            <mxPoint x="140" y="600" as="targetPoint" />
          </mxGeometry>
        </mxCell>
        <mxCell id="0TnctNxrD1-3UNqjvdYk-77" value="X" style="rounded=0;whiteSpace=wrap;html=1;" vertex="1" parent="1">
          <mxGeometry x="150" y="560" width="20" height="20" as="geometry" />
        </mxCell>
        <mxCell id="0TnctNxrD1-3UNqjvdYk-78" value="" style="endArrow=none;html=1;rounded=0;" edge="1" parent="1">
          <mxGeometry width="50" height="50" relative="1" as="geometry">
            <mxPoint x="120" y="650" as="sourcePoint" />
            <mxPoint x="640" y="650" as="targetPoint" />
          </mxGeometry>
        </mxCell>
        <mxCell id="0TnctNxrD1-3UNqjvdYk-79" value="" style="endArrow=none;html=1;rounded=0;" edge="1" parent="1">
          <mxGeometry width="50" height="50" relative="1" as="geometry">
            <mxPoint x="120" y="670" as="sourcePoint" />
            <mxPoint x="640" y="670" as="targetPoint" />
          </mxGeometry>
        </mxCell>
        <mxCell id="0TnctNxrD1-3UNqjvdYk-80" value="" style="endArrow=none;html=1;rounded=0;" edge="1" parent="1">
          <mxGeometry width="50" height="50" relative="1" as="geometry">
            <mxPoint x="120" y="710" as="sourcePoint" />
            <mxPoint x="640" y="710" as="targetPoint" />
          </mxGeometry>
        </mxCell>
        <mxCell id="0TnctNxrD1-3UNqjvdYk-83" value="" style="endArrow=none;dashed=1;html=1;dashPattern=1 3;strokeWidth=2;rounded=0;" edge="1" parent="1">
          <mxGeometry width="50" height="50" relative="1" as="geometry">
            <mxPoint x="140" y="700" as="sourcePoint" />
            <mxPoint x="140" y="680" as="targetPoint" />
          </mxGeometry>
        </mxCell>
        <mxCell id="0TnctNxrD1-3UNqjvdYk-84" value="MODULAR&lt;br&gt;EXPONENTIATION&lt;br&gt;(a)&lt;br&gt;&lt;br&gt;&lt;br&gt;&lt;br&gt;&lt;br&gt;&lt;br&gt;&lt;br&gt;" style="rounded=0;whiteSpace=wrap;html=1;" vertex="1" parent="1">
          <mxGeometry x="200" y="460" width="220" height="260" as="geometry" />
        </mxCell>
        <mxCell id="0TnctNxrD1-3UNqjvdYk-85" value="QFT&lt;sup&gt;†&lt;/sup&gt;&lt;span id=&quot;docs-internal-guid-66bec11a-7fff-207b-f78b-7643b8b706ee&quot;&gt;&lt;/span&gt;" style="rounded=0;whiteSpace=wrap;html=1;" vertex="1" parent="1">
          <mxGeometry x="440" y="460" width="150" height="90" as="geometry" />
        </mxCell>
        <mxCell id="0TnctNxrD1-3UNqjvdYk-86" value="&lt;span id=&quot;docs-internal-guid-df8efc74-7fff-1b15-d392-07bf68c7a7da&quot;&gt;&lt;/span&gt;⦛" style="rounded=0;whiteSpace=wrap;html=1;" vertex="1" parent="1">
          <mxGeometry x="610" y="460" width="20" height="20" as="geometry" />
        </mxCell>
        <mxCell id="0TnctNxrD1-3UNqjvdYk-87" value="&lt;span id=&quot;docs-internal-guid-df8efc74-7fff-1b15-d392-07bf68c7a7da&quot;&gt;&lt;/span&gt;⦛" style="rounded=0;whiteSpace=wrap;html=1;" vertex="1" parent="1">
          <mxGeometry x="610" y="490" width="20" height="20" as="geometry" />
        </mxCell>
        <mxCell id="0TnctNxrD1-3UNqjvdYk-88" value="&lt;span id=&quot;docs-internal-guid-df8efc74-7fff-1b15-d392-07bf68c7a7da&quot;&gt;&lt;/span&gt;⦛" style="rounded=0;whiteSpace=wrap;html=1;" vertex="1" parent="1">
          <mxGeometry x="610" y="530" width="20" height="20" as="geometry" />
        </mxCell>
        <mxCell id="0TnctNxrD1-3UNqjvdYk-89" value="|0&amp;gt;" style="text;html=1;align=center;verticalAlign=middle;resizable=0;points=[];autosize=1;strokeColor=none;fillColor=none;" vertex="1" parent="1">
          <mxGeometry x="200" y="665" width="40" height="30" as="geometry" />
        </mxCell>
        <mxCell id="0TnctNxrD1-3UNqjvdYk-90" value="|0&amp;gt;" style="text;html=1;align=center;verticalAlign=middle;resizable=0;points=[];autosize=1;strokeColor=none;fillColor=none;" vertex="1" parent="1">
          <mxGeometry x="380" y="665" width="40" height="30" as="geometry" />
        </mxCell>
        <mxCell id="0TnctNxrD1-3UNqjvdYk-93" value="|1&amp;gt;" style="text;html=1;align=center;verticalAlign=middle;resizable=0;points=[];autosize=1;strokeColor=none;fillColor=none;" vertex="1" parent="1">
          <mxGeometry x="200" y="585" width="40" height="30" as="geometry" />
        </mxCell>
        <mxCell id="0TnctNxrD1-3UNqjvdYk-94" value="|a&lt;sup&gt;x &lt;/sup&gt;mod N&amp;gt;" style="text;html=1;align=center;verticalAlign=middle;resizable=0;points=[];autosize=1;strokeColor=none;fillColor=none;" vertex="1" parent="1">
          <mxGeometry x="340" y="585" width="80" height="30" as="geometry" />
        </mxCell>
        <mxCell id="0TnctNxrD1-3UNqjvdYk-95" value="|H&lt;sup&gt;2n&lt;/sup&gt;&amp;gt;" style="text;html=1;align=center;verticalAlign=middle;resizable=0;points=[];autosize=1;strokeColor=none;fillColor=none;" vertex="1" parent="1">
          <mxGeometry x="200" y="490" width="50" height="30" as="geometry" />
        </mxCell>
        <mxCell id="0TnctNxrD1-3UNqjvdYk-96" value="|𝝍&amp;gt;" style="text;html=1;align=center;verticalAlign=middle;resizable=0;points=[];autosize=1;strokeColor=none;fillColor=none;" vertex="1" parent="1">
          <mxGeometry x="380" y="490" width="40" height="30" as="geometry" />
        </mxCell>
        <mxCell id="0TnctNxrD1-3UNqjvdYk-97" value="|𝝍&amp;gt;" style="text;html=1;align=center;verticalAlign=middle;resizable=0;points=[];autosize=1;strokeColor=none;fillColor=none;" vertex="1" parent="1">
          <mxGeometry x="440" y="490" width="40" height="30" as="geometry" />
        </mxCell>
        <mxCell id="0TnctNxrD1-3UNqjvdYk-98" value="|j/r&amp;gt;" style="text;html=1;align=center;verticalAlign=middle;resizable=0;points=[];autosize=1;strokeColor=none;fillColor=none;" vertex="1" parent="1">
          <mxGeometry x="550" y="490" width="40" height="30" as="geometry" />
        </mxCell>
        <mxCell id="0TnctNxrD1-3UNqjvdYk-99" value="" style="endArrow=none;dashed=1;html=1;dashPattern=1 3;strokeWidth=2;rounded=0;" edge="1" parent="1">
          <mxGeometry width="50" height="50" relative="1" as="geometry">
            <mxPoint x="430" y="530" as="sourcePoint" />
            <mxPoint x="430" y="510" as="targetPoint" />
          </mxGeometry>
        </mxCell>
        <mxCell id="0TnctNxrD1-3UNqjvdYk-100" value="" style="endArrow=none;dashed=1;html=1;dashPattern=1 3;strokeWidth=2;rounded=0;" edge="1" parent="1">
          <mxGeometry width="50" height="50" relative="1" as="geometry">
            <mxPoint x="430" y="620" as="sourcePoint" />
            <mxPoint x="430" y="600" as="targetPoint" />
          </mxGeometry>
        </mxCell>
        <mxCell id="0TnctNxrD1-3UNqjvdYk-101" value="" style="endArrow=none;dashed=1;html=1;dashPattern=1 3;strokeWidth=2;rounded=0;" edge="1" parent="1">
          <mxGeometry width="50" height="50" relative="1" as="geometry">
            <mxPoint x="430" y="700" as="sourcePoint" />
            <mxPoint x="430" y="680" as="targetPoint" />
          </mxGeometry>
        </mxCell>
        <mxCell id="0TnctNxrD1-3UNqjvdYk-102" value="" style="endArrow=none;dashed=1;html=1;dashPattern=1 3;strokeWidth=2;rounded=0;" edge="1" parent="1">
          <mxGeometry width="50" height="50" relative="1" as="geometry">
            <mxPoint x="600" y="530" as="sourcePoint" />
            <mxPoint x="600" y="510" as="targetPoint" />
          </mxGeometry>
        </mxCell>
        <mxCell id="0TnctNxrD1-3UNqjvdYk-103" value="" style="endArrow=none;dashed=1;html=1;dashPattern=1 3;strokeWidth=2;rounded=0;" edge="1" parent="1">
          <mxGeometry width="50" height="50" relative="1" as="geometry">
            <mxPoint x="600" y="620" as="sourcePoint" />
            <mxPoint x="600" y="600" as="targetPoint" />
          </mxGeometry>
        </mxCell>
        <mxCell id="0TnctNxrD1-3UNqjvdYk-104" value="" style="endArrow=none;dashed=1;html=1;dashPattern=1 3;strokeWidth=2;rounded=0;" edge="1" parent="1">
          <mxGeometry width="50" height="50" relative="1" as="geometry">
            <mxPoint x="600" y="700" as="sourcePoint" />
            <mxPoint x="600" y="680" as="targetPoint" />
          </mxGeometry>
        </mxCell>
      </root>
    </mxGraphModel>
  </diagram>
</mxfile>
